<?xml version="1.0" standalone="no"?>
<!DOCTYPE svg PUBLIC "-//W3C//DTD SVG 20010904//EN"
 "http://www.w3.org/TR/2001/REC-SVG-20010904/DTD/svg10.dtd">
<svg version="1.0" xmlns="http://www.w3.org/2000/svg"
 width="2000.000000pt" height="2000.000000pt" viewBox="0 0 2000.000000 2000.000000"
 preserveAspectRatio="xMidYMid meet">
<metadata>
Created by potrace 1.14, written by Peter Selinger 2001-2017
</metadata>
<g transform="translate(0.000000,2000.000000) scale(0.100000,-0.100000)"
fill="#000000" stroke="none">
<path d="M13315 16133 c-312 -24 -485 -48 -655 -88 -458 -109 -729 -290 -865
-577 -133 -280 -47 -575 263 -899 187 -196 378 -349 822 -660 139 -97 267
-195 313 -239 69 -67 77 -80 77 -113 0 -58 -30 -71 -168 -76 -122 -3 -267 13
-463 54 -63 13 -116 22 -117 20 -2 -2 33 -43 78 -91 393 -417 694 -974 836
-1549 79 -321 99 -496 99 -875 0 -313 -9 -421 -53 -662 l-17 -93 -85 -6 c-47
-3 -86 -5 -88 -3 -2 1 8 60 22 131 56 288 73 695 41 1001 -67 632 -308 1225
-707 1741 -103 131 -409 440 -543 547 -231 183 -550 372 -818 483 -311 129
-669 212 -1031 241 -491 38 -1042 -50 -1503 -241 -268 -111 -587 -300 -818
-483 -134 -107 -440 -416 -543 -547 -399 -516 -640 -1109 -707 -1741 -20 -190
-20 -535 0 -726 47 -450 197 -920 418 -1309 l35 -61 -31 5 c-18 2 -63 5 -102
6 l-70 2 -68 135 c-185 369 -312 809 -348 1205 -6 66 -13 126 -15 133 -3 9
-199 12 -940 12 l-936 0 33 -37 c19 -21 361 -401 762 -845 400 -444 727 -810
727 -812 0 -13 -45 -27 -127 -40 -72 -12 -93 -12 -119 -1 -17 7 -63 18 -103
25 l-71 12 -907 1006 -907 1007 1290 3 1290 2 12 172 c7 94 11 173 9 175 -2 2
-759 2 -1682 1 l-1679 -3 1054 -1170 c579 -643 1064 -1182 1077 -1196 l25 -27
-74 -12 c-306 -49 -503 -150 -592 -303 -38 -64 -37 -90 23 -498 82 -562 109
-714 131 -754 23 -41 19 -55 -14 -55 -61 0 -310 -81 -357 -116 -8 -5 -27 -16
-42 -24 -45 -22 -133 -115 -157 -166 -14 -27 -22 -63 -22 -92 1 -88 153 -1095
171 -1129 5 -10 14 -29 21 -43 18 -40 134 -115 205 -135 17 -4 35 -9 40 -11
135 -39 392 -27 670 32 66 13 186 31 266 39 81 8 193 26 250 39 57 13 145 27
194 31 121 9 340 42 449 67 79 18 133 38 231 84 23 11 43 12 78 5 135 -25 335
-5 912 90 l240 39 26 -28 c14 -15 271 -299 570 -632 299 -333 561 -624 583
-647 l39 -43 -41 -162 c-22 -90 -39 -164 -37 -166 2 -3 58 29 123 70 l119 75
349 -388 c192 -214 352 -388 356 -386 4 1 161 173 348 382 188 209 346 381
350 383 4 2 58 -29 119 -68 62 -38 116 -70 120 -70 5 0 -9 70 -31 156 -21 86
-38 162 -36 169 2 7 423 479 936 1049 728 807 941 1038 965 1045 18 5 65 23
104 39 70 30 76 30 159 22 48 -5 114 -7 148 -4 97 8 470 61 727 105 230 38
270 49 395 102 59 25 63 25 160 15 116 -13 251 -1 624 57 390 60 450 76 663
170 l126 57 83 -21 c111 -26 228 -31 379 -14 131 14 380 57 439 74 71 22 187
73 240 106 71 45 94 66 142 131 31 41 41 65 45 105 4 47 -27 269 -143 1022 -9
61 -25 129 -36 151 -19 43 -67 87 -132 124 -101 56 -339 84 -518 61 -281 -37
-429 -69 -540 -118 -42 -18 -78 -33 -81 -33 -3 0 -10 13 -15 29 -9 26 -7 35
21 73 42 59 65 123 72 205 5 68 -21 275 -89 693 -22 137 -22 146 -6 165 9 11
266 297 570 635 l554 615 -862 3 c-474 1 -862 3 -862 5 0 2 18 57 40 122 44
131 62 195 90 324 22 98 12 96 -20 -4 -28 -86 -95 -253 -145 -362 l-38 -83
-79 0 c-60 0 -79 3 -75 13 3 6 29 64 57 127 145 319 208 643 182 933 -15 163
-32 249 -82 398 -157 472 -540 926 -1155 1364 -183 131 -395 266 -725 460
-157 92 -321 191 -365 220 -168 108 -287 233 -347 362 -74 157 -22 316 142
437 161 118 406 207 750 270 143 26 382 56 449 56 22 0 43 5 46 10 6 9 -462
12 -570 3z m-3405 -2003 c0 -5 -4 -10 -10 -10 -5 0 -10 5 -10 10 0 6 5 10 10
10 6 0 10 -4 10 -10z m230 -16 c0 -26 -1 -26 -47 -20 -69 10 -83 16 -83 32 0
11 15 14 65 14 63 0 65 -1 65 -26z m257 0 c37 -5 40 -8 28 -21 -8 -8 -15 -25
-15 -39 0 -28 5 -28 -90 -5 -73 17 -75 19 -78 51 l-3 32 58 -6 c32 -4 77 -9
100 -12z m266 -45 l108 -23 -25 -20 c-15 -13 -26 -34 -28 -52 l-3 -31 -102 30
-101 30 -4 49 c-3 47 -2 48 22 44 14 -3 74 -15 133 -27z m-1113 -19 c107 -5
208 -12 223 -16 l29 -6 -35 -24 c-41 -27 -53 -55 -37 -84 18 -33 55 -24 141
36 l80 56 56 -7 c86 -11 87 -12 48 -58 -38 -45 -43 -67 -19 -91 27 -28 51 -17
110 49 63 72 50 70 176 41 l49 -11 -35 -42 c-42 -48 -45 -76 -12 -98 31 -21
45 -14 101 52 55 63 53 63 184 23 l73 -23 -36 -33 c-40 -36 -45 -58 -19 -86
25 -28 43 -22 106 32 l58 49 62 -23 c34 -13 78 -30 97 -38 l35 -15 -27 -6
c-48 -12 -50 -86 -2 -96 10 -2 51 7 91 20 l73 23 87 -40 c47 -21 88 -44 90
-49 2 -6 -17 -16 -42 -23 -53 -14 -70 -49 -39 -83 22 -25 61 -20 147 18 l57
26 105 -64 c58 -34 105 -66 105 -70 0 -6 -74 -40 -118 -54 -27 -8 -45 -39 -37
-65 14 -45 91 -34 193 27 31 19 59 30 66 25 7 -4 42 -29 79 -56 74 -55 74 -64
5 -113 -44 -30 -52 -75 -18 -93 29 -16 57 -4 112 48 l48 45 56 -49 c31 -27 67
-57 80 -67 22 -17 23 -20 9 -47 -8 -15 -33 -42 -55 -60 -59 -46 -52 -100 13
-100 22 0 42 13 82 54 l52 54 62 -62 63 -63 -15 -34 c-8 -19 -29 -51 -46 -73
-17 -21 -31 -45 -31 -52 0 -15 35 -54 49 -54 17 0 64 45 91 86 l27 43 35 -37
c19 -20 49 -54 66 -75 l32 -38 -20 -39 c-11 -21 -36 -52 -55 -67 -21 -17 -35
-37 -35 -50 0 -23 24 -53 43 -53 24 0 77 40 106 80 l30 41 54 -73 c29 -40 78
-109 107 -152 l53 -80 -11 -54 c-6 -30 -21 -74 -32 -98 -27 -55 -23 -86 12
-98 35 -12 61 9 84 70 9 24 20 44 24 44 4 0 19 -22 33 -48 l26 -48 -38 -110
c-55 -158 -104 -273 -175 -409 -302 -581 -767 -1044 -1339 -1334 -241 -123
-332 -154 -539 -185 -209 -32 -297 -53 -396 -95 l-73 -30 -161 6 c-136 5 -164
9 -179 24 -14 14 -26 16 -56 11 -21 -4 -92 -7 -158 -7 l-119 0 -27 85 -26 85
141 6 c78 4 153 12 168 17 31 13 43 43 29 71 -10 18 -19 19 -184 14 -143 -5
-176 -3 -183 8 -5 8 -18 46 -30 85 l-21 71 115 12 c184 19 266 63 225 121 -17
24 -25 24 -123 -4 -30 -9 -98 -19 -150 -22 l-95 -7 -34 124 c-19 68 -36 129
-38 135 -3 8 39 13 145 15 158 4 182 11 182 53 -1 49 -7 50 -188 47 l-170 -3
-16 56 c-9 30 -19 68 -22 84 l-6 28 179 28 c199 32 225 43 207 93 -5 16 -18
29 -29 31 -11 1 -101 -11 -200 -27 -99 -16 -183 -26 -186 -23 -9 10 -71 223
-66 228 2 2 73 12 157 21 119 13 158 21 172 35 22 22 22 30 0 58 l-18 22 -172
-17 c-95 -10 -174 -16 -175 -14 -5 6 -76 214 -74 215 1 1 76 13 165 27 90 14
170 31 178 38 20 17 14 59 -11 74 -16 10 -52 7 -195 -16 -96 -15 -175 -27
-175 -26 0 1 -15 38 -33 82 -17 44 -28 82 -24 86 4 3 77 30 162 59 85 29 163
59 173 68 23 20 22 45 -4 68 -20 18 -23 18 -200 -43 l-179 -62 -45 89 -45 89
43 25 c41 23 163 69 220 81 39 8 56 48 32 75 -10 11 -27 20 -38 20 -41 0 -146
-33 -225 -72 -46 -22 -84 -39 -86 -37 -1 2 -22 33 -46 68 l-44 63 34 29 c55
46 153 109 170 109 24 0 40 21 40 50 0 80 -79 63 -228 -50 l-84 -63 -41 40
c-23 21 -58 53 -78 70 l-37 30 87 50 c47 28 97 54 111 58 77 23 80 105 3 105
-21 0 -146 -63 -228 -115 l-58 -38 -54 29 -54 29 45 41 c25 23 71 52 101 65
65 27 81 57 47 92 -19 19 -25 19 -63 8 -55 -17 -112 -53 -175 -113 l-52 -49
-81 24 c-44 13 -83 26 -86 29 -13 13 38 107 81 149 44 43 54 75 32 97 -43 43
-145 -45 -194 -166 -19 -48 -33 -70 -42 -67 -8 3 -45 5 -83 5 -49 0 -69 4 -69
13 0 34 24 90 55 127 39 47 42 61 19 84 -53 54 -152 -55 -170 -188 l-7 -45
-56 -11 c-31 -6 -71 -16 -89 -22 -18 -5 -36 -8 -39 -5 -11 12 20 77 53 113 35
39 43 71 22 92 -16 16 -50 15 -67 0 -34 -33 13 34 87 122 384 460 892 794
1472 970 189 57 144 53 400 40z m1355 -44 c654 -203 1210 -603 1607 -1159 65
-92 69 -99 52 -112 -17 -12 -24 -7 -74 48 -48 53 -56 68 -67 125 -7 35 -17 70
-24 78 -16 19 -68 18 -76 -2 -4 -12 -15 -7 -49 27 -38 37 -44 49 -44 84 0 71
-48 108 -90 70 -16 -14 -23 -11 -78 35 -58 50 -60 53 -55 90 9 68 -41 115 -80
75 -9 -8 -17 -20 -19 -26 -2 -7 -31 8 -70 36 -49 35 -64 52 -61 65 3 10 0 35
-7 54 -16 49 -56 60 -83 24 l-19 -25 -89 54 c-77 48 -87 57 -79 73 18 33 12
69 -14 85 -31 20 -63 6 -72 -30 -3 -14 -8 -25 -10 -25 -2 0 -47 21 -99 48 -82
40 -95 50 -90 67 3 11 8 29 11 41 7 27 -19 54 -52 54 -18 0 -29 -9 -41 -35 -9
-20 -19 -34 -22 -33 -3 2 -68 27 -143 57 -145 58 -148 60 -148 128 0 21 -7 37
-22 47 -32 23 -16 20 107 -18z m-3423 -1277 c-15 -63 -18 -68 -59 -88 l-43
-21 48 78 c27 42 52 83 56 90 14 24 14 8 -2 -59z m491 -116 c-20 -65 -13 -181
13 -200 23 -16 35 -16 59 0 15 12 18 26 16 85 -1 45 4 84 14 107 14 36 15 37
57 30 24 -4 53 -11 66 -16 l22 -9 -24 -37 c-14 -21 -35 -68 -47 -106 -18 -55
-20 -72 -10 -93 9 -20 17 -25 43 -22 35 3 40 11 64 90 9 32 31 74 48 94 l32
37 44 -23 c25 -12 46 -23 48 -25 1 -1 -13 -28 -32 -59 -39 -64 -66 -167 -66
-248 0 -61 12 -78 52 -78 35 0 48 24 48 87 0 87 41 201 81 226 18 11 30 4 119
-76 l52 -47 -25 -20 c-65 -51 -155 -218 -142 -261 4 -11 18 -25 31 -31 19 -9
28 -8 44 7 11 10 20 23 20 29 1 42 106 196 134 196 11 -1 91 -105 101 -131 3
-8 -44 -72 -115 -154 -72 -85 -120 -149 -120 -162 0 -26 34 -53 59 -46 9 2 64
60 122 128 57 68 108 124 112 124 5 1 24 -33 44 -75 l35 -77 -121 -121 c-129
-129 -141 -152 -97 -181 33 -22 41 -16 161 104 l99 101 28 -71 28 -70 -120
-137 c-91 -104 -120 -144 -120 -165 0 -31 37 -55 63 -41 8 5 59 59 112 119 53
61 100 109 103 107 6 -2 36 -86 67 -182 5 -14 -21 -48 -104 -137 -108 -116
-125 -145 -99 -171 30 -30 61 -13 153 84 l90 97 33 -111 c17 -61 32 -114 32
-119 0 -4 -50 -51 -110 -103 -86 -75 -110 -100 -110 -121 0 -30 17 -49 45 -49
11 0 61 36 110 80 50 43 93 79 96 80 8 0 42 -126 37 -138 -1 -4 -51 -52 -110
-106 -60 -54 -108 -105 -108 -114 0 -22 30 -52 51 -52 10 0 57 35 104 78 48
42 90 78 94 80 4 1 22 -53 41 -120 18 -68 35 -128 37 -134 2 -6 -48 -38 -113
-70 -64 -33 -119 -65 -121 -72 -3 -6 -2 -23 1 -36 11 -45 40 -42 156 16 l108
54 23 -78 c12 -43 20 -80 18 -82 -2 -2 -46 -31 -97 -65 -51 -34 -96 -69 -99
-77 -10 -25 14 -64 39 -64 13 0 60 25 106 55 56 38 84 52 87 43 3 -7 16 -48
29 -90 l24 -78 -27 0 c-48 0 -315 59 -437 95 -189 58 -297 100 -479 190 -592
292 -1066 760 -1376 1360 -67 130 -163 361 -194 467 l-16 56 47 129 c25 70 69
176 96 235 50 107 51 107 127 157 l76 51 7 -55 c11 -86 53 -155 93 -155 48 0
57 39 24 107 -27 57 -29 131 -3 150 17 12 76 32 144 48 l25 6 0 -93 c0 -108
15 -155 53 -165 19 -4 30 0 44 17 11 14 16 30 12 39 -12 29 -16 166 -5 194 10
26 13 27 85 27 l74 0 -15 -47z m4717 -45 c17 -32 30 -58 27 -58 -12 0 -77 96
-77 114 0 26 10 15 50 -56z m2531 -2523 c40 -220 99 -659 99 -733 0 -79 -58
-160 -147 -205 -122 -62 -377 -111 -583 -111 -123 0 -139 2 -184 25 -64 31
-111 79 -130 132 -21 59 -90 469 -122 731 -22 180 -24 220 -13 226 25 16 292
59 367 60 35 0 44 -4 52 -22 12 -29 33 -139 76 -388 54 -320 85 -474 98 -487
17 -18 114 -5 126 17 6 10 0 78 -16 186 -22 151 -94 699 -94 716 0 23 249 66
369 64 l65 -1 37 -210z m-1799 -80 c76 -20 117 -44 155 -93 37 -49 52 -97 92
-300 17 -84 35 -170 40 -190 17 -65 22 -276 7 -324 -23 -77 -78 -142 -151
-176 -91 -44 -130 -53 -508 -112 -266 -43 -341 -52 -360 -43 -21 10 -27 26
-50 150 -29 150 -57 388 -50 426 3 13 -5 88 -16 168 -23 162 -41 324 -41 368
0 17 6 31 15 35 16 6 294 51 525 85 155 23 269 25 342 6z m-1837 -279 c23 -54
30 -159 12 -174 -8 -7 -103 -28 -212 -47 -108 -18 -200 -36 -203 -39 -6 -7 18
-179 27 -194 4 -6 71 -1 181 14 235 31 248 31 261 -3 19 -47 28 -166 14 -181
-7 -8 -90 -27 -186 -43 -248 -42 -222 -31 -214 -92 3 -29 11 -76 16 -104 12
-63 0 -61 194 -33 77 11 164 20 193 20 52 0 53 -1 69 -37 9 -21 18 -71 21
-110 5 -72 4 -73 -23 -83 -32 -12 -447 -79 -684 -111 -137 -18 -165 -19 -176
-8 -30 33 -190 1108 -168 1130 17 17 716 127 816 128 45 1 49 -1 62 -33z
m-1443 -195 c14 -13 90 -478 123 -754 25 -214 23 -236 -31 -309 -54 -75 -158
-120 -359 -157 -247 -45 -416 -49 -505 -10 -49 22 -104 70 -125 109 -19 37
-89 443 -125 724 -26 197 -29 242 -18 252 15 15 215 51 334 60 75 6 82 5 87
-12 10 -36 37 -179 67 -364 17 -102 39 -221 49 -265 11 -44 25 -116 31 -160 7
-44 17 -86 23 -93 12 -15 105 -6 126 13 12 12 7 62 -33 342 -75 535 -77 555
-56 574 11 9 74 24 171 38 85 12 161 24 169 25 18 4 63 -4 72 -13z m-1787
-257 c90 -12 177 -71 212 -144 25 -52 46 -138 39 -163 -4 -17 -16 -29 -38 -36
-60 -19 -222 -43 -303 -44 -79 -2 -80 -2 -82 23 -2 31 -25 93 -41 112 -9 12
-23 13 -63 7 -81 -13 -82 -14 -77 -161 2 -70 6 -130 9 -133 3 -3 19 1 35 9 43
22 443 86 534 86 30 0 43 -5 54 -22 24 -40 57 -238 59 -359 2 -103 0 -119 -22
-164 -56 -113 -148 -165 -372 -212 -101 -22 -153 -27 -279 -27 -142 -1 -159 1
-206 22 -63 28 -116 82 -143 143 -48 108 -111 507 -111 701 0 117 64 218 169
267 25 12 54 26 63 32 51 27 418 82 488 73 14 -2 48 -6 75 -10z m-1397 -219
c6 -5 78 -427 101 -585 57 -396 71 -524 57 -538 -24 -24 -399 -80 -424 -64
-18 12 -59 235 -82 446 -11 100 -31 262 -45 361 -14 99 -26 214 -28 255 l-2
75 50 12 c140 34 353 56 373 38z m9560 -97 c25 -33 184 -1083 169 -1122 -7
-17 -58 -29 -260 -57 -137 -20 -159 -21 -171 -8 -17 18 -61 251 -81 429 -15
126 -69 570 -80 651 -3 24 0 41 8 48 17 13 132 38 264 56 128 17 139 17 151 3z
m-10911 -223 c12 -66 45 -264 73 -440 29 -176 53 -321 55 -323 1 -2 84 7 183
19 216 27 222 26 240 -51 18 -80 16 -147 -6 -159 -31 -16 -707 -121 -782 -121
-22 0 -42 5 -46 11 -12 20 -94 520 -134 819 -34 260 -37 296 -24 306 26 20
289 63 369 60 l50 -1 22 -120z m9779 15 c71 -25 134 -83 163 -149 11 -25 38
-136 60 -246 119 -591 66 -686 -434 -764 -375 -59 -520 -78 -536 -70 -21 11
-62 229 -94 501 -13 117 -33 281 -44 363 -33 258 -33 261 -19 273 15 12 238
51 493 87 213 30 333 31 411 5z m-1474 -207 c15 -39 23 -179 10 -187 -10 -6
-196 -42 -339 -66 -40 -6 -75 -15 -76 -18 -6 -11 22 -185 31 -194 4 -4 88 3
186 17 223 32 222 32 239 -2 22 -44 39 -117 35 -149 -4 -41 -26 -48 -232 -83
-99 -17 -182 -34 -186 -38 -8 -9 5 -129 19 -178 5 -21 14 -29 27 -28 10 1 92
11 182 22 238 31 227 32 246 -33 9 -30 16 -79 16 -110 0 -46 -3 -57 -22 -67
-46 -25 -833 -138 -849 -122 -29 29 -187 1107 -165 1130 17 19 708 129 824
132 37 1 44 -2 54 -26z m-1673 -233 c159 -18 225 -72 262 -215 39 -147 18
-295 -49 -344 l-27 -20 37 -31 c41 -34 81 -110 123 -235 15 -44 33 -93 40
-110 7 -16 21 -50 31 -74 17 -41 17 -44 1 -56 -20 -14 -147 -39 -315 -61 -113
-15 -115 -15 -137 6 -21 20 -56 105 -99 240 -10 30 -29 79 -42 108 -19 41 -29
52 -47 52 -13 0 -26 -2 -29 -5 -2 -3 3 -66 13 -142 9 -75 20 -172 24 -215 l7
-78 -27 -10 c-43 -16 -270 -51 -348 -53 l-71 -2 -22 110 c-13 61 -32 187 -44
280 -12 94 -32 253 -45 355 -36 267 -47 382 -38 391 10 10 189 41 483 84 124
18 227 33 230 34 3 0 43 -4 89 -9z m-1481 -256 c36 -19 69 -45 89 -72 58 -77
103 -273 69 -301 -20 -17 -270 -60 -348 -61 -55 0 -57 1 -67 33 -5 17 -15 59
-21 92 -17 89 -27 99 -94 91 -54 -7 -56 -8 -66 -46 -11 -41 -1 -136 46 -415
26 -158 39 -206 64 -244 14 -20 21 -23 56 -17 69 12 69 12 69 142 l0 118 48
12 c67 17 257 44 310 44 73 0 97 -48 97 -194 -1 -155 -51 -228 -203 -294 -124
-55 -265 -82 -453 -89 -170 -6 -218 3 -292 58 -86 63 -141 252 -177 609 -19
182 -19 234 0 297 18 59 81 135 136 163 127 65 379 111 577 105 89 -2 110 -6
160 -31z m-1574 -244 c82 -31 119 -79 146 -191 17 -69 21 -110 18 -177 -4 -92
-18 -127 -66 -168 l-24 -21 34 -26 c42 -33 85 -116 138 -272 48 -140 62 -175
73 -175 4 0 3 -9 -2 -19 -13 -24 -60 -35 -271 -65 -116 -17 -170 -21 -183 -14
-23 12 -51 74 -107 237 -51 151 -63 171 -101 171 -25 0 -29 -3 -25 -22 8 -35
34 -253 42 -339 l6 -76 -28 -11 c-42 -17 -362 -64 -385 -57 -23 8 -18 -12 -74
315 -56 332 -118 811 -107 822 9 9 286 59 527 93 189 28 304 26 389 -5z
m-1485 -205 c8 -16 16 -62 19 -101 4 -65 2 -73 -16 -83 -11 -6 -98 -24 -193
-41 -96 -17 -183 -33 -195 -35 -17 -4 -20 -11 -17 -37 5 -46 25 -162 29 -169
1 -3 87 7 191 21 103 15 201 24 217 20 24 -4 31 -13 42 -50 8 -25 14 -68 14
-97 0 -43 -4 -54 -21 -64 -12 -6 -107 -25 -213 -43 l-191 -32 3 -45 c1 -24 7
-73 14 -108 l11 -63 51 6 c28 3 120 15 204 26 83 11 159 17 167 14 21 -8 45
-97 45 -166 0 -52 -3 -59 -23 -67 -40 -15 -709 -117 -809 -123 -21 -1 -40 0
-42 3 -11 11 -107 598 -136 829 -17 135 -32 254 -35 265 -2 11 -1 26 4 33 5 8
69 24 152 39 203 35 659 102 689 100 17 -1 29 -12 39 -32z m-1454 -197 c22
-62 165 -1014 165 -1098 0 -23 -6 -30 -32 -39 -54 -16 -220 -41 -294 -44 l-69
-2 -13 50 c-11 45 -72 379 -72 398 0 4 -4 7 -9 7 -4 0 -23 -60 -40 -132 -94
-390 -83 -361 -147 -377 -27 -7 -81 -15 -120 -18 l-70 -6 -32 39 c-18 21 -32
42 -32 47 0 5 -8 21 -19 35 -10 15 -28 43 -38 62 -11 19 -46 76 -77 125 -31
50 -60 97 -65 105 -19 31 -19 1 -1 -125 11 -72 22 -172 26 -222 l7 -93 -34
-14 c-19 -8 -100 -23 -180 -35 -166 -24 -160 -23 -176 -13 -27 17 -196 1113
-175 1134 16 16 463 88 549 88 43 0 56 -20 219 -341 15 -30 29 -48 34 -43 5 5
18 54 29 109 11 55 29 141 40 190 24 107 21 92 21 109 0 24 60 43 205 65 358
56 393 59 400 39z m3871 -1128 c42 -107 80 -199 85 -204 4 -5 99 -15 211 -22
112 -8 213 -15 226 -16 19 -3 -11 -31 -152 -148 -97 -80 -176 -149 -176 -155
0 -5 25 -106 54 -223 31 -123 49 -211 43 -209 -7 3 -94 57 -195 120 l-183 116
-191 -120 c-105 -66 -192 -118 -194 -117 -1 2 22 102 52 222 30 121 51 222 46
225 -20 13 -341 285 -339 287 1 1 81 7 177 13 96 6 198 14 227 17 l52 5 83
209 c46 115 86 206 90 202 3 -4 41 -95 84 -202z m-1206 -311 c217 -182 403
-338 412 -347 16 -16 15 -27 -26 -190 -24 -95 -46 -175 -48 -177 -3 -3 -921
1013 -926 1026 -2 5 36 10 85 12 48 1 93 4 98 5 6 1 188 -147 405 -329z m1038
-1028 l72 -80 -2 -232 -3 -232 -200 223 c-110 122 -200 227 -200 232 0 8 242
167 256 168 3 0 38 -36 77 -79z"/>
<path d="M15041 9654 c-85 -14 -156 -25 -157 -27 -2 -1 6 -59 17 -127 25 -164
25 -205 -1 -228 -26 -22 -145 -41 -188 -30 -42 11 -49 29 -76 203 -17 106 -26
140 -37 139 -23 -1 -323 -45 -335 -49 -12 -3 22 -246 47 -335 47 -172 174
-210 522 -155 342 53 425 106 435 276 4 67 -11 214 -34 332 -6 32 8 32 -193 1z"/>
<path d="M13070 9719 c-30 -5 -58 -13 -61 -17 -10 -10 16 -202 47 -347 14 -66
33 -164 43 -218 10 -54 21 -100 24 -103 10 -10 98 8 118 25 28 22 27 75 -5
292 -36 242 -53 335 -66 359 -12 22 -18 22 -100 9z"/>
<path d="M13540 9425 c-41 -7 -114 -18 -162 -25 l-88 -12 6 -57 c3 -31 10 -86
15 -124 13 -95 3 -145 -33 -167 -36 -22 -208 -47 -217 -32 -4 6 -17 83 -30
171 -18 121 -28 161 -38 161 -26 0 -347 -50 -351 -55 -4 -4 61 -464 74 -523 4
-19 10 -23 27 -18 12 3 155 25 317 50 477 73 527 92 595 226 14 28 18 57 17
140 -2 139 -22 274 -42 276 -8 1 -49 -4 -90 -11z"/>
<path d="M11220 9078 c-212 -33 -386 -61 -388 -63 -3 -3 77 -537 81 -541 3 -3
790 116 794 120 6 6 -25 178 -33 186 -5 4 -103 -7 -219 -25 -115 -17 -213 -29
-217 -26 -11 9 -48 265 -40 272 4 3 90 18 192 33 261 38 242 32 238 69 -2 17
-7 31 -13 32 -5 2 -183 -24 -395 -57z"/>
<path d="M10090 8905 c-41 -7 -115 -18 -163 -25 l-89 -12 5 -32 c3 -17 12 -69
21 -116 23 -120 21 -184 -5 -208 -21 -20 -79 -32 -154 -32 -66 0 -76 18 -105
193 -20 118 -29 152 -40 150 -8 -1 -88 -12 -177 -24 -190 -27 -173 -4 -143
-190 31 -197 56 -261 121 -303 77 -51 177 -58 399 -26 299 42 400 83 451 182
15 29 19 58 19 130 -1 127 -31 322 -50 325 -8 0 -49 -5 -90 -12z"/>
<path d="M8320 8641 l-235 -37 3 -39 c2 -22 5 -42 7 -44 3 -2 47 2 100 9 52 8
97 11 101 8 10 -11 22 -124 19 -183 -4 -67 -20 -87 -83 -105 -48 -13 -128 -13
-152 0 -35 19 -55 77 -84 244 -9 49 -17 90 -18 91 -2 1 -79 -9 -171 -23 l-169
-26 5 -30 c14 -97 58 -279 80 -326 29 -66 92 -125 151 -141 71 -20 166 -18
336 8 305 45 400 102 430 256 11 61 3 212 -18 332 -9 52 -9 52 -302 6z"/>
<path d="M8138 8501 c-36 -3 -69 -9 -72 -12 -5 -5 7 -101 19 -155 2 -11 14
-32 24 -46 19 -24 23 -25 73 -16 29 5 59 14 66 20 27 23 3 219 -27 216 -9 0
-46 -4 -83 -7z"/>
<path d="M6820 8414 c-85 -14 -158 -28 -162 -32 -9 -9 67 -521 79 -533 8 -8
333 39 345 50 4 3 -11 123 -32 266 -22 143 -40 263 -40 268 0 10 -11 8 -190
-19z"/>
<path d="M16375 8343 c-82 -13 -153 -27 -156 -31 -4 -4 12 -133 35 -287 39
-257 44 -280 62 -279 10 0 90 11 177 24 139 20 157 25 157 42 0 10 -18 138
-40 284 -22 146 -40 268 -40 270 0 7 -40 2 -195 -23z"/>
<path d="M5427 8206 c-75 -13 -140 -25 -143 -29 -7 -6 70 -524 79 -534 7 -7
745 102 754 111 9 9 -17 180 -28 186 -5 4 -91 -6 -192 -22 -100 -15 -189 -28
-198 -28 -12 0 -20 32 -40 168 l-24 167 -35 2 c-19 0 -97 -9 -173 -21z"/>
<path d="M15001 8468 l-63 -10 7 -67 c4 -36 18 -123 31 -193 13 -71 35 -188
49 -260 14 -73 27 -138 29 -144 5 -14 113 1 134 19 15 12 16 9 -8 282 -10 118
-50 319 -72 363 -12 24 -13 24 -107 10z"/>
<path d="M15381 8194 c-85 -13 -156 -26 -158 -27 -1 -2 2 -30 7 -63 24 -150
27 -268 9 -291 -22 -26 -63 -40 -152 -53 -48 -7 -89 -11 -91 -9 -1 2 -15 85
-30 183 -14 99 -29 182 -32 185 -7 7 -327 -39 -337 -49 -8 -7 69 -559 79 -569
7 -7 623 90 695 110 39 11 88 28 109 39 50 26 108 94 121 144 13 46 7 215 -12
344 -14 96 9 90 -208 56z"/>
<path d="M13520 7914 c-195 -30 -360 -56 -366 -58 -7 -3 4 -97 32 -286 23
-155 44 -284 47 -286 5 -6 786 111 793 119 7 7 -16 186 -25 191 -3 1 -103 -12
-221 -30 -118 -18 -218 -30 -221 -26 -5 5 -48 270 -45 273 1 0 97 15 214 33
116 18 215 35 218 39 3 3 3 24 -1 46 -6 38 -9 41 -38 40 -18 -1 -192 -25 -387
-55z"/>
<path d="M11967 8019 c-27 -4 -51 -10 -53 -12 -5 -5 23 -208 32 -239 7 -23 71
-24 102 -2 26 18 28 46 11 158 -14 93 -26 105 -92 95z"/>
<path d="M11990 7683 c-234 -35 -428 -68 -433 -72 -8 -8 71 -551 83 -564 6 -7
322 37 339 47 4 3 -8 103 -26 222 -18 120 -30 221 -26 225 5 4 36 10 71 14 60
7 63 6 90 -23 20 -21 44 -77 82 -189 63 -186 72 -203 111 -203 28 0 276 35
327 46 23 5 23 5 4 32 -10 15 -22 36 -25 47 -11 41 -86 246 -103 282 -27 60
-62 101 -102 122 l-37 19 36 16 c40 17 72 47 48 45 -8 0 -205 -30 -439 -66z"/>
<path d="M10118 7401 c-197 -30 -182 -9 -142 -201 58 -281 120 -356 299 -368
77 -5 265 18 392 48 244 58 325 176 279 413 -7 37 -16 70 -19 74 -4 3 -80 -5
-169 -18 -150 -22 -163 -26 -160 -44 10 -73 14 -148 8 -179 -9 -49 -40 -66
-128 -73 -68 -5 -75 -3 -94 18 -29 32 -42 76 -64 220 -11 67 -23 125 -27 129
-4 3 -83 -5 -175 -19z"/>
<path d="M8787 7540 c-20 -4 -40 -9 -43 -13 -6 -6 22 -216 33 -243 5 -13 16
-15 49 -11 61 6 74 20 74 78 0 55 -16 144 -32 177 -12 23 -19 24 -81 12z"/>
<path d="M8806 7204 c-231 -35 -421 -65 -422 -67 -1 -1 17 -130 40 -287 43
-285 43 -285 67 -283 68 6 315 46 322 52 4 4 -7 105 -25 224 -17 119 -29 219
-27 222 3 3 33 8 67 11 53 6 65 4 83 -12 29 -26 51 -74 83 -179 15 -49 31 -99
36 -110 5 -11 18 -41 29 -67 24 -57 12 -56 226 -23 88 13 163 25 167 25 4 0
-1 17 -12 38 -29 59 -47 103 -64 157 -49 161 -96 249 -148 278 -21 12 -38 25
-38 28 0 4 13 12 30 19 16 7 35 18 41 26 16 20 17 20 -455 -52z"/>
<path d="M7324 6981 c-203 -32 -375 -60 -380 -64 -7 -4 5 -105 32 -284 24
-153 43 -279 43 -280 1 -2 10 -3 22 -3 25 0 773 111 777 115 7 6 -21 186 -29
190 -4 3 -98 -8 -208 -25 -111 -16 -209 -30 -219 -30 -16 0 -21 18 -39 133
-11 72 -17 135 -14 139 3 4 101 21 216 38 116 18 214 35 218 39 4 4 5 26 1 49
-5 35 -10 42 -28 41 -11 -1 -188 -27 -392 -58z"/>
<path d="M6100 6796 l-135 -21 3 -30 c7 -71 80 -536 85 -541 11 -11 309 40
314 54 5 11 -34 289 -69 500 -12 73 4 70 -198 38z"/>
<path d="M5721 6739 c-62 -10 -121 -21 -130 -25 -9 -4 -25 -6 -36 -5 -23 2
-287 -38 -294 -44 -2 -3 29 -60 70 -127 41 -68 76 -127 78 -133 2 -5 17 -29
32 -52 16 -23 29 -44 29 -48 0 -3 17 -32 38 -63 21 -31 44 -69 51 -84 16 -32
38 -34 131 -15 l55 12 28 110 c15 61 30 124 33 140 3 17 23 101 45 187 21 86
39 160 39 163 0 8 -45 4 -169 -16z"/>
<path d="M4991 6629 c-63 -10 -117 -21 -121 -26 -7 -7 72 -558 81 -568 6 -5
298 41 306 49 5 5 -52 421 -74 539 -7 33 -22 33 -192 6z"/>
<path d="M9984 6029 c-44 -115 -49 -119 -147 -120 -34 0 -79 -3 -99 -7 l-38
-7 90 -75 c50 -41 90 -77 90 -80 0 -3 -13 -56 -29 -117 -17 -66 -24 -110 -17
-106 6 3 50 30 97 59 47 30 92 54 100 53 8 0 55 -26 104 -58 50 -32 91 -55 93
-51 2 4 -9 53 -23 108 -14 55 -25 105 -25 110 0 5 40 43 90 83 l89 74 -42 7
c-23 3 -68 7 -99 7 -93 1 -99 7 -144 120 -21 56 -42 101 -45 101 -3 0 -24 -45
-45 -101z"/>
<path d="M12165 15996 c-329 -127 -566 -366 -621 -628 -25 -117 -15 -280 23
-390 36 -102 91 -199 162 -283 54 -63 163 -160 214 -190 25 -15 20 -6 -28 50
-74 88 -177 245 -215 329 -53 117 -74 210 -73 326 0 125 27 219 93 333 79 133
312 343 503 453 55 31 23 31 -58 0z"/>
</g>
</svg>
